<svg width="168" height="34" fill="none" xmlns="http://www.w3.org/2000/svg"><path d="M55.436 12.608c-1.876 0-3.332.7-4.172 1.96V7.4h-3.612V27h3.612v-7.56c0-2.436 1.316-3.472 3.08-3.472 1.624 0 2.772.98 2.772 2.884V27h3.612v-8.596c0-3.724-2.324-5.796-5.292-5.796zm10.868 8.876H76.86c.084-.476.14-.952.14-1.484 0-4.116-2.94-7.392-7.084-7.392-4.396 0-7.392 3.22-7.392 7.392 0 4.172 2.968 7.392 7.672 7.392 2.688 0 4.788-1.092 6.104-2.996l-2.912-1.68c-.616.812-1.736 1.4-3.136 1.4-1.904 0-3.444-.784-3.948-2.632zm-.056-2.8c.42-1.792 1.736-2.828 3.668-2.828 1.512 0 3.024.812 3.472 2.828h-7.14zm16.326-3.276V13h-3.612v14h3.612v-6.692c0-2.94 2.38-3.78 4.256-3.556V12.72c-1.764 0-3.528.784-4.256 2.688zm11.953 11.984c4.116 0 7.42-3.22 7.42-7.392 0-4.172-3.304-7.392-7.42-7.392s-7.392 3.22-7.392 7.392c0 4.172 3.276 7.392 7.392 7.392zm0-3.528c-2.128 0-3.78-1.596-3.78-3.864s1.652-3.864 3.78-3.864c2.156 0 3.808 1.596 3.808 3.864s-1.652 3.864-3.808 3.864zM105.72 11.32c1.232 0 2.24-1.008 2.24-2.212 0-1.204-1.008-2.24-2.24-2.24-1.204 0-2.212 1.036-2.212 2.24a2.235 2.235 0 002.212 2.212zM103.928 27h3.612V13h-3.612v14zm13.022.392c2.744 0 5.124-1.456 6.328-3.64l-3.136-1.792c-.56 1.148-1.764 1.848-3.22 1.848-2.156 0-3.752-1.596-3.752-3.808 0-2.24 1.596-3.836 3.752-3.836 1.428 0 2.632.728 3.192 1.876l3.108-1.82c-1.148-2.156-3.528-3.612-6.272-3.612-4.256 0-7.392 3.22-7.392 7.392 0 4.172 3.136 7.392 7.392 7.392zm14.123 0c4.116 0 7.42-3.22 7.42-7.392 0-4.172-3.304-7.392-7.42-7.392s-7.392 3.22-7.392 7.392c0 4.172 3.276 7.392 7.392 7.392zm0-3.528c-2.128 0-3.78-1.596-3.78-3.864s1.652-3.864 3.78-3.864c2.156 0 3.808 1.596 3.808 3.864s-1.652 3.864-3.808 3.864zm17.185-11.256c-1.876 0-3.332.7-4.172 1.96V13h-3.612v14h3.612v-7.56c0-2.436 1.316-3.472 3.08-3.472 1.624 0 2.772.98 2.772 2.884V27h3.612v-8.596c0-3.724-2.324-5.796-5.292-5.796zm11.148 4.368c0-.756.728-1.148 1.624-1.148 1.036 0 1.82.532 2.24 1.428l3.08-1.68c-1.092-1.932-3.052-2.968-5.32-2.968-2.884 0-5.32 1.596-5.32 4.452 0 4.928 7.224 3.808 7.224 5.852 0 .812-.784 1.204-1.932 1.204-1.4 0-2.352-.672-2.744-1.82l-3.136 1.764c1.008 2.156 3.08 3.332 5.88 3.332 2.996 0 5.628-1.456 5.628-4.48 0-5.152-7.224-3.864-7.224-5.936z" fill="#fff"/><path d="M16 4.542a23.234 23.234 0 0013.713 4.83c.189 1.083.287 2.198.287 3.338 0 8.825-5.915 16.274-14 18.589C7.915 28.984 2 21.535 2 12.71c0-1.14.098-2.256.287-3.34A23.234 23.234 0 0016 4.543z" stroke="#AC94FA" stroke-width="4" stroke-linecap="round" stroke-linejoin="round"/></svg>
